<svg width="8" height="17" viewBox="0 0 8 17" fill="none" xmlns="http://www.w3.org/2000/svg">
<path d="M5.28343 12.7509C5.28343 14.1065 5.28031 15.4587 5.28655 16.8143C5.28655 16.9627 5.24912 17.0032 5.11189 16.9998C4.04522 16.9931 2.98168 16.9931 1.91501 16.9998C1.76842 16.9998 1.72164 16.9627 1.72164 16.7975C1.72788 14.1099 1.72476 11.4256 1.72476 8.73801C1.72476 8.46824 1.75283 8.50196 1.49708 8.49859C1.04483 8.49859 0.592593 8.49522 0.140351 8.50196C0.0311891 8.50196 0 8.46487 0 8.34684C0.00311891 7.49368 0.00311891 6.63716 0 5.784C0 5.66597 0.0311891 5.62888 0.140351 5.63225C0.614425 5.639 1.08538 5.62888 1.55945 5.639C1.68733 5.64237 1.72788 5.60527 1.72788 5.46027C1.72164 4.742 1.72787 4.02036 1.72476 3.30209C1.72164 2.70522 1.80585 2.12858 2.08343 1.60252C2.38285 1.02925 2.83197 0.634708 3.38713 0.378424C3.85497 0.162605 4.34776 0.0614403 4.85302 0.0310908C5.85419 -0.0296081 6.85848 0.0209744 7.85965 0.000741383C7.97193 -0.00263078 8 0.0412073 8 0.155861C7.99688 1.04274 7.99688 1.93299 8 2.81987C8 2.95476 7.95322 2.97499 7.84405 2.97499C7.26706 2.97162 6.69006 2.97162 6.11306 2.97162C5.63275 2.97162 5.28655 3.34593 5.28655 3.85849C5.28655 4.38792 5.29279 4.91398 5.28343 5.44341C5.28031 5.59516 5.3271 5.63225 5.46121 5.63225C6.25029 5.62551 7.0425 5.63225 7.83158 5.62551C7.96257 5.62551 8.00624 5.66597 7.99064 5.8076C7.94386 6.24261 7.90331 6.67762 7.85965 7.11263C7.8191 7.53078 7.75049 7.94555 7.68811 8.36033C7.6694 8.47836 7.63509 8.50533 7.53528 8.50533C6.85848 8.50196 6.1848 8.50196 5.50799 8.50533C5.24289 8.50533 5.28031 8.46824 5.28031 8.75825C5.28343 10.0869 5.28343 11.4189 5.28343 12.7509Z" fill="#3B5998"/>
</svg>
