<svg width="20" height="18" viewBox="0 0 20 18" fill="none" xmlns="http://www.w3.org/2000/svg">
<path fill-rule="evenodd" clip-rule="evenodd" d="M20 2.13082C19.2652 2.49228 18.4739 2.73664 17.6439 2.84582C18.4914 2.28421 19.1419 1.39355 19.4483 0.332777C18.6547 0.852868 17.7778 1.23121 16.841 1.43405C16.0944 0.55131 15.0273 0 13.8463 0C11.5818 0 9.74469 2.03463 9.74469 4.54396C9.74469 4.90019 9.77985 5.24596 9.85031 5.57891C6.44037 5.3889 3.4176 3.58174 1.39248 0.829411C1.0392 1.5029 0.837174 2.28421 0.837174 3.11633C0.837174 4.69212 1.56154 6.08314 2.66261 6.89838C1.99122 6.87627 1.35717 6.66955 0.803112 6.33154V6.3874C0.803112 8.58977 2.21762 10.4268 4.09587 10.8429C3.75197 10.9496 3.38917 11.0029 3.01464 11.0029C2.75058 11.0029 2.4923 10.9756 2.24215 10.9222C2.76449 12.7269 4.27884 14.0413 6.0749 14.0764C4.67086 15.2959 2.90074 16.0226 0.979047 16.0226C0.647959 16.0226 0.320464 16.0018 0 15.9601C1.81607 17.2472 3.97369 18 6.28974 18C13.8379 18 17.9641 11.0768 17.9641 5.07164C17.9641 4.87404 17.9605 4.67643 17.9535 4.4827C18.7556 3.84179 19.4517 3.04224 20 2.13082Z" fill="#1DA1F2"/>
</svg>
