<svg width="22" height="14" viewBox="0 0 22 14" fill="none" xmlns="http://www.w3.org/2000/svg">
<path d="M0.742844 0C1.51213 0 2.68437 0 3.34376 0C3.67345 0 3.92988 0.232044 4.03978 0.541437C4.36947 1.54696 5.10212 3.75138 5.94467 5.25967C7.08028 7.23204 7.81293 7.96685 8.28916 7.8895C8.76538 7.77348 8.61885 6.45856 8.61885 5.41436C8.61885 4.37017 8.72875 2.59116 8.25252 1.77901L7.51987 0.657459C7.33671 0.386741 7.51987 0.0386742 7.81293 0.0386742H11.989C12.392 0.0386742 12.7217 0.386741 12.7217 0.812155V6.41989C12.7217 6.41989 12.9049 7.42541 13.9306 6.38122C14.9563 5.33702 16.0553 3.40332 16.9711 1.43094L17.3374 0.502763C17.4473 0.232044 17.7037 0.0386742 17.9968 0.0386742H20.7076C21.2205 0.0386742 21.5868 0.580111 21.4036 1.08287L21.1106 1.89503C21.1106 1.89503 20.1215 3.98343 19.0958 5.45304C18.0701 6.96133 17.8503 7.30939 17.9968 7.69613C18.1433 8.08287 20.7809 10.674 21.4403 11.9116C21.6234 12.2597 21.77 12.5691 21.9165 12.8398C22.1729 13.3425 21.8066 14 21.2571 14H18.18C17.9235 14 17.6671 13.8453 17.5572 13.6133L17.2641 13.1105C17.2641 13.1105 15.3959 10.7901 14.2603 10.0553C13.088 9.35912 13.1247 10.3646 13.1247 10.3646V12.4144C13.1247 13.2652 12.4653 13.9613 11.6594 13.9613H10.9267C10.9267 13.9613 6.89712 13.9613 3.67345 8.89503C1.1458 4.95028 0.303253 2.39779 0.0101922 0.928177C-0.0630729 0.464088 0.26662 0 0.742844 0Z" fill="#0077FF"/>
</svg>
